%TF.GenerationSoftware,KiCad,Pcbnew,7.0.8*%
%TF.CreationDate,2024-09-29T17:06:50-05:00*%
%TF.ProjectId,CapacitiveLedFadeTiny,43617061-6369-4746-9976-654c65644661,rev?*%
%TF.SameCoordinates,Original*%
%TF.FileFunction,Legend,Top*%
%TF.FilePolarity,Positive*%
%FSLAX46Y46*%
G04 Gerber Fmt 4.6, Leading zero omitted, Abs format (unit mm)*
G04 Created by KiCad (PCBNEW 7.0.8) date 2024-09-29 17:06:50*
%MOMM*%
%LPD*%
G01*
G04 APERTURE LIST*
%ADD10C,0.150000*%
%ADD11C,0.100000*%
%ADD12C,0.120000*%
G04 APERTURE END LIST*
D10*
X128499095Y-95114819D02*
X128499095Y-95924342D01*
X128499095Y-95924342D02*
X128546714Y-96019580D01*
X128546714Y-96019580D02*
X128594333Y-96067200D01*
X128594333Y-96067200D02*
X128689571Y-96114819D01*
X128689571Y-96114819D02*
X128880047Y-96114819D01*
X128880047Y-96114819D02*
X128975285Y-96067200D01*
X128975285Y-96067200D02*
X129022904Y-96019580D01*
X129022904Y-96019580D02*
X129070523Y-95924342D01*
X129070523Y-95924342D02*
X129070523Y-95114819D01*
X130070523Y-96114819D02*
X129499095Y-96114819D01*
X129784809Y-96114819D02*
X129784809Y-95114819D01*
X129784809Y-95114819D02*
X129689571Y-95257676D01*
X129689571Y-95257676D02*
X129594333Y-95352914D01*
X129594333Y-95352914D02*
X129499095Y-95400533D01*
X123870819Y-104473333D02*
X124585104Y-104473333D01*
X124585104Y-104473333D02*
X124727961Y-104520952D01*
X124727961Y-104520952D02*
X124823200Y-104616190D01*
X124823200Y-104616190D02*
X124870819Y-104759047D01*
X124870819Y-104759047D02*
X124870819Y-104854285D01*
X123870819Y-104092380D02*
X123870819Y-103473333D01*
X123870819Y-103473333D02*
X124251771Y-103806666D01*
X124251771Y-103806666D02*
X124251771Y-103663809D01*
X124251771Y-103663809D02*
X124299390Y-103568571D01*
X124299390Y-103568571D02*
X124347009Y-103520952D01*
X124347009Y-103520952D02*
X124442247Y-103473333D01*
X124442247Y-103473333D02*
X124680342Y-103473333D01*
X124680342Y-103473333D02*
X124775580Y-103520952D01*
X124775580Y-103520952D02*
X124823200Y-103568571D01*
X124823200Y-103568571D02*
X124870819Y-103663809D01*
X124870819Y-103663809D02*
X124870819Y-103949523D01*
X124870819Y-103949523D02*
X124823200Y-104044761D01*
X124823200Y-104044761D02*
X124775580Y-104092380D01*
X135016904Y-88310819D02*
X135016904Y-89025104D01*
X135016904Y-89025104D02*
X134969285Y-89167961D01*
X134969285Y-89167961D02*
X134874047Y-89263200D01*
X134874047Y-89263200D02*
X134731190Y-89310819D01*
X134731190Y-89310819D02*
X134635952Y-89310819D01*
X123078904Y-88310819D02*
X123078904Y-89025104D01*
X123078904Y-89025104D02*
X123031285Y-89167961D01*
X123031285Y-89167961D02*
X122936047Y-89263200D01*
X122936047Y-89263200D02*
X122793190Y-89310819D01*
X122793190Y-89310819D02*
X122697952Y-89310819D01*
X130636580Y-96925666D02*
X130684200Y-96973285D01*
X130684200Y-96973285D02*
X130731819Y-97116142D01*
X130731819Y-97116142D02*
X130731819Y-97211380D01*
X130731819Y-97211380D02*
X130684200Y-97354237D01*
X130684200Y-97354237D02*
X130588961Y-97449475D01*
X130588961Y-97449475D02*
X130493723Y-97497094D01*
X130493723Y-97497094D02*
X130303247Y-97544713D01*
X130303247Y-97544713D02*
X130160390Y-97544713D01*
X130160390Y-97544713D02*
X129969914Y-97497094D01*
X129969914Y-97497094D02*
X129874676Y-97449475D01*
X129874676Y-97449475D02*
X129779438Y-97354237D01*
X129779438Y-97354237D02*
X129731819Y-97211380D01*
X129731819Y-97211380D02*
X129731819Y-97116142D01*
X129731819Y-97116142D02*
X129779438Y-96973285D01*
X129779438Y-96973285D02*
X129827057Y-96925666D01*
X129827057Y-96544713D02*
X129779438Y-96497094D01*
X129779438Y-96497094D02*
X129731819Y-96401856D01*
X129731819Y-96401856D02*
X129731819Y-96163761D01*
X129731819Y-96163761D02*
X129779438Y-96068523D01*
X129779438Y-96068523D02*
X129827057Y-96020904D01*
X129827057Y-96020904D02*
X129922295Y-95973285D01*
X129922295Y-95973285D02*
X130017533Y-95973285D01*
X130017533Y-95973285D02*
X130160390Y-96020904D01*
X130160390Y-96020904D02*
X130731819Y-96592332D01*
X130731819Y-96592332D02*
X130731819Y-95973285D01*
X131931580Y-96658666D02*
X131979200Y-96706285D01*
X131979200Y-96706285D02*
X132026819Y-96849142D01*
X132026819Y-96849142D02*
X132026819Y-96944380D01*
X132026819Y-96944380D02*
X131979200Y-97087237D01*
X131979200Y-97087237D02*
X131883961Y-97182475D01*
X131883961Y-97182475D02*
X131788723Y-97230094D01*
X131788723Y-97230094D02*
X131598247Y-97277713D01*
X131598247Y-97277713D02*
X131455390Y-97277713D01*
X131455390Y-97277713D02*
X131264914Y-97230094D01*
X131264914Y-97230094D02*
X131169676Y-97182475D01*
X131169676Y-97182475D02*
X131074438Y-97087237D01*
X131074438Y-97087237D02*
X131026819Y-96944380D01*
X131026819Y-96944380D02*
X131026819Y-96849142D01*
X131026819Y-96849142D02*
X131074438Y-96706285D01*
X131074438Y-96706285D02*
X131122057Y-96658666D01*
X132026819Y-95706285D02*
X132026819Y-96277713D01*
X132026819Y-95991999D02*
X131026819Y-95991999D01*
X131026819Y-95991999D02*
X131169676Y-96087237D01*
X131169676Y-96087237D02*
X131264914Y-96182475D01*
X131264914Y-96182475D02*
X131312533Y-96277713D01*
D11*
%TO.C,U1*%
X127186000Y-101460000D02*
X127186000Y-101660000D01*
X127186000Y-101660000D02*
X127886000Y-101660000D01*
X131386000Y-101460000D02*
X131386000Y-101660000D01*
X131386000Y-101660000D02*
X130786000Y-101660000D01*
X130686000Y-96460000D02*
X131386000Y-96460000D01*
X131386000Y-96460000D02*
X131386000Y-96660000D01*
X127486000Y-96440000D02*
X127186000Y-96740000D01*
X127186000Y-96740000D02*
X126486000Y-96740000D01*
D12*
%TO.C,J3*%
X133156000Y-105470000D02*
X133156000Y-102810000D01*
X128016000Y-105470000D02*
X133156000Y-105470000D01*
X126746000Y-105470000D02*
X125416000Y-105470000D01*
X128016000Y-102810000D02*
X133156000Y-102810000D01*
X125416000Y-105470000D02*
X125416000Y-104140000D01*
X128016000Y-105470000D02*
X128016000Y-102810000D01*
%TO.C,J *%
X136585000Y-92456000D02*
X136585000Y-100136000D01*
X133925000Y-91186000D02*
X133925000Y-89856000D01*
X133925000Y-100136000D02*
X136585000Y-100136000D01*
X133925000Y-92456000D02*
X136585000Y-92456000D01*
X133925000Y-89856000D02*
X135255000Y-89856000D01*
X133925000Y-92456000D02*
X133925000Y-100136000D01*
X124647000Y-92456000D02*
X124647000Y-100136000D01*
X121987000Y-91186000D02*
X121987000Y-89856000D01*
X121987000Y-100136000D02*
X124647000Y-100136000D01*
X121987000Y-92456000D02*
X124647000Y-92456000D01*
X121987000Y-89856000D02*
X123317000Y-89856000D01*
X121987000Y-92456000D02*
X121987000Y-100136000D01*
%TO.C,C2*%
X129792000Y-94374580D02*
X129792000Y-94093420D01*
X130812000Y-94374580D02*
X130812000Y-94093420D01*
%TO.C,C1*%
X131212000Y-94849836D02*
X131212000Y-94634164D01*
X131932000Y-94849836D02*
X131932000Y-94634164D01*
%TD*%
M02*
