%TF.GenerationSoftware,KiCad,Pcbnew,7.0.8*%
%TF.CreationDate,2024-09-29T17:39:07-05:00*%
%TF.ProjectId,CapacitiveLedFadeTiny,43617061-6369-4746-9976-654c65644661,rev?*%
%TF.SameCoordinates,Original*%
%TF.FileFunction,Legend,Top*%
%TF.FilePolarity,Positive*%
%FSLAX46Y46*%
G04 Gerber Fmt 4.6, Leading zero omitted, Abs format (unit mm)*
G04 Created by KiCad (PCBNEW 7.0.8) date 2024-09-29 17:39:07*
%MOMM*%
%LPD*%
G01*
G04 APERTURE LIST*
%ADD10C,0.150000*%
%ADD11C,0.100000*%
%ADD12C,0.120000*%
G04 APERTURE END LIST*
D10*
X128016095Y-95114819D02*
X128016095Y-95924342D01*
X128016095Y-95924342D02*
X128063714Y-96019580D01*
X128063714Y-96019580D02*
X128111333Y-96067200D01*
X128111333Y-96067200D02*
X128206571Y-96114819D01*
X128206571Y-96114819D02*
X128397047Y-96114819D01*
X128397047Y-96114819D02*
X128492285Y-96067200D01*
X128492285Y-96067200D02*
X128539904Y-96019580D01*
X128539904Y-96019580D02*
X128587523Y-95924342D01*
X128587523Y-95924342D02*
X128587523Y-95114819D01*
X129587523Y-96114819D02*
X129016095Y-96114819D01*
X129301809Y-96114819D02*
X129301809Y-95114819D01*
X129301809Y-95114819D02*
X129206571Y-95257676D01*
X129206571Y-95257676D02*
X129111333Y-95352914D01*
X129111333Y-95352914D02*
X129016095Y-95400533D01*
X124489866Y-104520951D02*
X124489866Y-103759047D01*
X124870819Y-104139999D02*
X124108914Y-104139999D01*
X134874048Y-88929866D02*
X135635953Y-88929866D01*
X135255000Y-89310819D02*
X135255000Y-88548914D01*
X122936048Y-88929866D02*
X123697953Y-88929866D01*
X123317000Y-89310819D02*
X123317000Y-88548914D01*
X130636580Y-91860666D02*
X130684200Y-91908285D01*
X130684200Y-91908285D02*
X130731819Y-92051142D01*
X130731819Y-92051142D02*
X130731819Y-92146380D01*
X130731819Y-92146380D02*
X130684200Y-92289237D01*
X130684200Y-92289237D02*
X130588961Y-92384475D01*
X130588961Y-92384475D02*
X130493723Y-92432094D01*
X130493723Y-92432094D02*
X130303247Y-92479713D01*
X130303247Y-92479713D02*
X130160390Y-92479713D01*
X130160390Y-92479713D02*
X129969914Y-92432094D01*
X129969914Y-92432094D02*
X129874676Y-92384475D01*
X129874676Y-92384475D02*
X129779438Y-92289237D01*
X129779438Y-92289237D02*
X129731819Y-92146380D01*
X129731819Y-92146380D02*
X129731819Y-92051142D01*
X129731819Y-92051142D02*
X129779438Y-91908285D01*
X129779438Y-91908285D02*
X129827057Y-91860666D01*
X129827057Y-91479713D02*
X129779438Y-91432094D01*
X129779438Y-91432094D02*
X129731819Y-91336856D01*
X129731819Y-91336856D02*
X129731819Y-91098761D01*
X129731819Y-91098761D02*
X129779438Y-91003523D01*
X129779438Y-91003523D02*
X129827057Y-90955904D01*
X129827057Y-90955904D02*
X129922295Y-90908285D01*
X129922295Y-90908285D02*
X130017533Y-90908285D01*
X130017533Y-90908285D02*
X130160390Y-90955904D01*
X130160390Y-90955904D02*
X130731819Y-91527332D01*
X130731819Y-91527332D02*
X130731819Y-90908285D01*
X132185580Y-92876666D02*
X132233200Y-92924285D01*
X132233200Y-92924285D02*
X132280819Y-93067142D01*
X132280819Y-93067142D02*
X132280819Y-93162380D01*
X132280819Y-93162380D02*
X132233200Y-93305237D01*
X132233200Y-93305237D02*
X132137961Y-93400475D01*
X132137961Y-93400475D02*
X132042723Y-93448094D01*
X132042723Y-93448094D02*
X131852247Y-93495713D01*
X131852247Y-93495713D02*
X131709390Y-93495713D01*
X131709390Y-93495713D02*
X131518914Y-93448094D01*
X131518914Y-93448094D02*
X131423676Y-93400475D01*
X131423676Y-93400475D02*
X131328438Y-93305237D01*
X131328438Y-93305237D02*
X131280819Y-93162380D01*
X131280819Y-93162380D02*
X131280819Y-93067142D01*
X131280819Y-93067142D02*
X131328438Y-92924285D01*
X131328438Y-92924285D02*
X131376057Y-92876666D01*
X132280819Y-91924285D02*
X132280819Y-92495713D01*
X132280819Y-92209999D02*
X131280819Y-92209999D01*
X131280819Y-92209999D02*
X131423676Y-92305237D01*
X131423676Y-92305237D02*
X131518914Y-92400475D01*
X131518914Y-92400475D02*
X131566533Y-92495713D01*
D11*
%TO.C,U1*%
X127186000Y-101460000D02*
X127186000Y-101660000D01*
X127186000Y-101660000D02*
X127886000Y-101660000D01*
X131386000Y-101460000D02*
X131386000Y-101660000D01*
X131386000Y-101660000D02*
X130786000Y-101660000D01*
X130686000Y-96460000D02*
X131386000Y-96460000D01*
X131386000Y-96460000D02*
X131386000Y-96660000D01*
X127486000Y-96440000D02*
X127186000Y-96740000D01*
X127186000Y-96740000D02*
X126486000Y-96740000D01*
D12*
%TO.C,+*%
X133156000Y-105470000D02*
X133156000Y-102810000D01*
X128016000Y-105470000D02*
X133156000Y-105470000D01*
X126746000Y-105470000D02*
X125416000Y-105470000D01*
X128016000Y-102810000D02*
X133156000Y-102810000D01*
X125416000Y-105470000D02*
X125416000Y-104140000D01*
X128016000Y-105470000D02*
X128016000Y-102810000D01*
X136585000Y-92456000D02*
X136585000Y-100136000D01*
X133925000Y-91186000D02*
X133925000Y-89856000D01*
X133925000Y-100136000D02*
X136585000Y-100136000D01*
X133925000Y-92456000D02*
X136585000Y-92456000D01*
X133925000Y-89856000D02*
X135255000Y-89856000D01*
X133925000Y-92456000D02*
X133925000Y-100136000D01*
X124647000Y-92456000D02*
X124647000Y-100136000D01*
X121987000Y-91186000D02*
X121987000Y-89856000D01*
X121987000Y-100136000D02*
X124647000Y-100136000D01*
X121987000Y-92456000D02*
X124647000Y-92456000D01*
X121987000Y-89856000D02*
X123317000Y-89856000D01*
X121987000Y-92456000D02*
X121987000Y-100136000D01*
%TO.C,C2*%
X129792000Y-94374580D02*
X129792000Y-94093420D01*
X130812000Y-94374580D02*
X130812000Y-94093420D01*
%TO.C,C1*%
X131212000Y-94849836D02*
X131212000Y-94634164D01*
X131932000Y-94849836D02*
X131932000Y-94634164D01*
%TD*%
M02*
